# xmcd CD database file
#
# Track frame offsets:
#	150
#	17075
#	37482
#	58495
#	77337
#	95305
#	119330
#	137752
#	153662
#	174230
#	194257
#	217335
#	234360
#	249635
#	272852
#	286237
#
# Disc length: 3974 seconds
#
# Revision: 15
# Processed by: cddbd v1.5.2PL0 Copyright (c) Steve Scherf et al.
# Submitted via: jetAudio 7
#
DISCID=ed0f8410
DTITLE=Various Artist - Men In Black - The Album
DYEAR=1997
DGENRE=Hip Hop - Instrumental, Pop Rap
TTITLE0=Men In Black
TTITLE1=We Just Wanna Party With You (Featuring JD)
TTITLE2=I'm Feelin' You
TTITLE3=Dah Dee Dah (Sexy Thing)
TTITLE4=Just Cruisin'
TTITLE5=The 'Notic (Featuring D'Angelo)
TTITLE6=Make You Happy
TTITLE7=Escobar '97
TTITLE8=Erotik City
TTITLE9=Same Ol' Thing
TTITLE10=Killing Time
TTITLE11=Waiting For Love
TTITLE12=Chanel No. Fever
TTITLE13=Some Cow Fonque (More Tea, Vicar?)
TTITLE14=M.I.B. Main Theme
TTITLE15=M.I.B. Closing Theme
EXTD=YEAR: 1997
EXTT0=
EXTT1=
EXTT2=
EXTT3=
EXTT4=
EXTT5=
EXTT6=
EXTT7=
EXTT8=
EXTT9=
EXTT10=
EXTT11=
EXTT12=
EXTT13=
EXTT14=
EXTT15=
PLAYORDER=
